<svg width="24" height="24" xmlns="http://www.w3.org/2000/svg">

 <title/>
 <g>
  <title>background</title>
  <rect fill="none" id="canvas_background" height="26" width="26" y="-1" x="-1"/>
 </g>
 <g>
  <title>Layer 1</title>
  <path stroke="null" fill="#efcc00" id="svg_1" d="m11.227905,2.090191l-9.785505,18.515642a0.893788,0.976438 0 0 0 0.772098,1.462364l19.57101,0a0.893788,0.976438 0 0 0 0.772098,-1.462364l-9.785505,-18.515642a0.893788,0.976438 0 0 0 -1.544196,0z" class="cls-1"/>
  <path stroke="null" fill="#353535" id="svg_2" d="m9.933712,18.817985a2.003549,1.647366 0 1 1 2.003549,1.647366a1.923407,1.581472 0 0 1 -2.003549,-1.647366zm0.727956,-2.558909l-0.507566,-8.236832l3.512889,0l-0.48753,8.236832l-2.517793,0z" class="cls-2"/>
 </g>
</svg>